<?xml version="1.0" encoding="UTF-8" standalone="no"?>
<!DOCTYPE svg PUBLIC "-//W3C//DTD SVG 1.1//EN" "http://www.w3.org/Graphics/SVG/1.1/DTD/svg11.dtd">
<svg width="100%" height="100%" viewBox="0 0 600 400" version="1.1" xmlns="http://www.w3.org/2000/svg" xmlns:xlink="http://www.w3.org/1999/xlink" xml:space="preserve" xmlns:serif="http://www.serif.com/" style="fill-rule:evenodd;clip-rule:evenodd;stroke-linejoin:round;stroke-miterlimit:2;">
    <g id="Layer1">
        <rect x="-1028.23" y="-248.288" width="1712.17" height="4055.19" style="fill:#3d4345;"/>
        <rect x="-13.101" y="-13.059" width="626.202" height="426.201" style="fill:url(#_Radial1);"/>
        <g id="CorelEMF" serif:id="CorelEMF">
        </g>
        <g id="CorelEMF1" serif:id="CorelEMF">
        </g>
        <g id="CorelEMF2" serif:id="CorelEMF">
        </g>
        <g id="CorelEMF3" serif:id="CorelEMF">
        </g>
        <path d="M299.896,68.547L302.809,77.285L311.963,77.285L304.473,82.695L307.386,91.434L299.896,86.024L292.614,91.434L295.527,82.695L288.036,77.285L297.191,77.285L299.896,68.547ZM334.018,327.166L329.024,319.468L320.286,321.757L325.904,314.683L320.91,306.985L329.441,310.314L335.266,303.239L334.85,312.394L343.381,315.515L334.434,318.012L334.018,327.166ZM265.982,73.124L265.566,82.279L256.619,84.568L265.15,87.897L264.734,97.051L270.351,89.769L279.09,93.098L273.888,85.4L279.714,78.326L270.976,80.822L265.982,73.124ZM365.643,314.059L358.985,307.817L351.079,312.394L354.824,304.072L347.958,298.038L357.113,298.87L360.858,290.548L362.73,299.494L371.677,300.535L363.771,305.112L365.643,314.059ZM234.149,86.232L236.229,95.179L228.115,99.756L237.27,100.588L239.142,109.535L242.887,101.212L252.042,102.253L245.176,96.011L248.921,87.688L241.015,92.266L234.149,86.232ZM392.899,293.044L384.785,288.883L378.335,295.333L379.791,286.387L371.677,282.225L380.624,280.769L382.08,271.822L386.241,279.937L395.396,278.48L388.738,284.93L392.899,293.044ZM206.893,107.038L211.262,115.152L204.604,121.81L213.759,120.354L217.92,128.468L219.376,119.314L228.323,118.065L220.209,113.904L221.665,104.749L215.215,111.199L206.893,107.038ZM413.913,265.788L404.967,263.916L400.389,271.822L399.349,262.668L390.402,260.795L398.725,257.05L397.893,248.103L403.926,254.761L412.249,251.016L407.671,259.131L413.913,265.788ZM427.021,234.163L417.866,234.579L415.578,243.526L412.249,234.787L403.094,235.412L410.168,229.586L406.839,221.055L414.537,226.049L421.612,220.223L419.323,229.17L427.021,234.163ZM172.979,234.163L182.134,234.579L184.422,243.526L187.751,234.787L196.906,235.412L189.832,229.586L192.953,221.055L185.463,226.049L178.18,220.223L180.677,229.17L172.979,234.163ZM186.087,265.788L195.033,263.916L199.611,271.822L200.651,262.668L209.598,260.795L201.067,257.05L202.107,248.103L196.074,254.761L187.543,251.016L192.329,259.131L186.087,265.788ZM392.899,107.038L388.738,115.152L395.396,121.81L386.241,120.354L382.08,128.468L380.624,119.314L371.677,118.065L379.791,113.904L378.335,104.749L384.785,111.199L392.899,107.038ZM206.893,293.044L215.215,288.883L221.665,295.333L220.209,286.387L228.323,282.225L219.376,280.769L217.92,271.822L213.759,279.937L204.604,278.48L211.262,284.93L206.893,293.044ZM365.643,86.232L363.771,95.179L371.677,99.756L362.73,100.588L360.858,109.535L357.113,101.212L347.958,102.253L354.824,96.011L351.079,87.688L358.985,92.266L365.643,86.232ZM234.149,314.059L241.015,307.817L248.921,312.394L245.176,304.072L252.042,298.038L242.887,298.87L239.142,290.548L237.27,299.494L228.115,300.535L236.229,305.112L234.149,314.059ZM334.018,73.124L334.434,82.279L343.381,84.568L334.85,87.897L335.266,97.051L329.441,89.769L320.91,93.098L325.904,85.4L320.286,78.326L329.024,80.822L334.018,73.124ZM265.982,327.166L270.976,319.468L279.714,321.757L273.888,314.683L279.09,306.985L270.351,310.314L264.734,303.239L265.15,312.394L256.619,315.515L265.566,318.012L265.982,327.166ZM299.896,331.536L302.809,322.797L311.963,322.797L304.473,317.596L307.386,308.857L299.896,314.267L292.614,308.857L295.527,317.596L288.036,322.797L297.191,322.797L299.896,331.536Z" style="fill:#61564b;"/>
        <path d="M221.703,168.723C233.031,171.166 241.916,172.054 249.246,172.054C252.778,172.054 255.961,171.822 258.965,171.526C259.734,171.451 260.494,171.744 261.014,172.318C261.533,172.891 261.751,173.676 261.6,174.435C261.405,175.566 261.239,176.725 261.018,177.829C257.908,178.496 254.355,178.94 250.579,179.384C244.713,179.789 237.926,180.009 229.548,179.207C227.987,179.057 226.605,178.133 225.87,176.748C224.479,174.139 223.091,171.498 221.703,168.723ZM292.337,113.859L293.644,113.859C293.904,113.859 294.134,113.692 294.215,113.446C294.297,113.2 294.212,112.929 294.005,112.774C291.86,111.075 290.56,108.464 290.56,105.419C290.56,100.31 294.78,96.09 299.889,96.09C305.22,96.09 309.44,100.31 309.44,105.419C309.44,108.465 307.995,111.077 305.92,112.79C305.72,112.942 305.639,113.206 305.72,113.444C305.801,113.683 306.024,113.843 306.276,113.843C307.006,113.859 307.663,113.859 307.663,113.859L307.663,115.636C307.663,117.191 306.33,118.302 304.998,118.302L295.002,118.302C293.67,118.302 292.337,117.191 292.337,115.636L292.337,113.859ZM299.889,101.643C302.11,101.643 303.887,103.42 303.887,105.419C303.887,107.64 302.11,109.417 299.889,109.417C297.89,109.417 296.113,107.64 296.113,105.419C296.113,103.42 297.89,101.643 299.889,101.643ZM271.236,147.621L328.764,147.621L328.764,149.398C328.764,150.731 327.654,152.064 326.321,152.064L310.329,153.944C309.662,153.944 308.996,154.166 308.329,154.611C307.885,155.055 307.663,155.721 307.663,156.61L310.329,247.353C310.551,258.903 309.44,268.898 306.552,280.226L299.889,304.437L293.447,280.226C290.56,268.898 289.227,258.903 289.671,247.353L292.337,156.61C292.337,155.721 292.115,155.055 291.448,154.611C291.004,154.166 290.338,153.944 289.671,153.944L273.679,152.064C272.346,152.064 271.236,150.731 271.236,149.398L271.236,147.621ZM296.898,155.825L303.102,155.825L301.666,212.924C301.666,220.254 301.444,226.473 301,233.581L299.889,248.685L299,233.581C298.556,226.473 298.334,220.254 298.334,212.924L296.898,155.825ZM292.337,140.958L307.663,140.958L307.663,142.735C307.663,144.067 306.33,145.178 304.998,145.178L295.002,145.178C293.67,145.178 292.337,144.067 292.337,142.735L292.337,140.958ZM292.337,134.072L307.663,134.072L307.663,135.849C307.663,137.404 306.33,138.514 304.998,138.514L295.002,138.514C293.67,138.514 292.337,137.404 292.337,135.849L292.337,134.072ZM292.337,127.408L307.663,127.408L307.663,129.185C307.663,130.518 306.33,131.851 304.998,131.851L295.002,131.851C293.67,131.851 292.337,130.518 292.337,129.185L292.337,127.408ZM292.337,120.523L307.663,120.523L307.663,122.522C307.663,123.854 306.33,124.965 304.998,124.965L295.002,124.965C293.67,124.965 292.337,123.854 292.337,122.522L292.337,120.523ZM378.075,168.723C366.969,171.166 357.862,172.054 350.754,172.054C347.22,172.054 343.918,171.822 340.932,171.525C340.174,171.449 339.423,171.732 338.903,172.289C338.382,172.847 338.152,173.615 338.279,174.366C338.477,175.52 338.647,176.703 338.76,177.829C342.092,178.496 345.423,178.94 349.421,179.384C355.086,179.789 362.039,180.009 370.451,179.206C372.017,179.056 373.403,178.126 374.136,176.733C375.515,174.129 376.863,171.493 378.075,168.723ZM331.652,230.916C328.854,228.118 326.415,225.32 324.013,222.522C323.509,221.935 322.814,221.545 322.05,221.421C320.559,221.177 319.21,220.786 317.436,220.254C319.435,223.142 323.656,230.249 331.652,230.916ZM462.036,68.547C441.379,112.304 401.619,151.619 352.975,158.949C344.091,160.282 336.761,160.06 329.209,159.616C327.21,159.394 325.655,160.282 324.544,162.059C323.434,163.614 323.434,165.391 324.322,167.168C326.543,171.166 327.876,176.052 328.542,181.605C329.653,193.156 326.099,203.595 320.102,207.371C318.991,208.26 317.436,208.704 315.881,208.926C315.215,208.926 313.66,211.814 314.105,212.702C314.558,213.459 315.012,214.318 315.466,215.211C315.941,216.137 316.747,216.851 317.723,217.212C318.959,217.414 320.459,217.589 321.434,217.589C320.768,216.922 318.991,213.591 318.325,212.48C328.32,210.037 334.984,196.487 333.429,181.161C332.985,176.941 331.874,172.943 330.319,169.389C330.097,168.5 330.097,167.612 330.763,166.723C331.43,166.057 332.318,165.613 333.207,165.835C338.316,166.501 344.535,166.723 351.643,166.279C397.843,164.28 468.477,118.746 462.036,68.547ZM356.751,237.135C358.306,237.135 359.639,237.135 361.194,236.913C353.192,232.722 341.433,224.609 337.828,222.105C337.129,221.637 336.278,221.456 335.45,221.597C333.378,221.952 331.182,222.253 328.987,222.253C331.652,224.919 334.539,227.584 337.649,230.249C343.202,235.136 349.421,237.357 356.751,237.135ZM332.985,217.144C331.28,215.61 329.705,214.206 328.262,212.833C327.516,212.116 326.399,211.946 325.473,212.41C324.51,212.904 323.576,213.296 322.545,213.591C323.26,214.449 323.976,215.307 324.75,216.165C325.639,217.141 326.898,217.695 328.218,217.691C329.858,217.66 331.421,217.457 332.985,217.144ZM389.847,225.363C384.516,225.141 379.63,224.252 375.187,223.142C366.405,221.099 359.126,218.494 353.003,215.843C352.025,215.415 350.901,215.49 349.988,216.043C347.736,217.386 345.358,218.451 342.98,219.366C348.311,222.697 353.642,225.585 358.973,228.028C369.412,232.915 380.518,231.804 389.847,225.363ZM345.423,211.591C344.979,211.369 344.313,211.147 343.868,210.925C340.882,209.344 338.174,207.763 335.633,206.072C334.561,205.351 333.112,205.589 332.327,206.616C331.635,207.528 330.907,208.338 330.097,209.148C331.933,210.65 334.019,212.278 336.168,213.842C337.553,214.844 339.373,215.01 340.916,214.276C342.467,213.504 343.991,212.594 345.423,211.591ZM411.615,204.928C413.614,202.485 415.391,200.041 417.39,197.376C401.619,203.595 388.959,204.928 378.297,204.262C374.517,204.073 370.737,203.562 367.368,203.003C366.29,202.823 365.192,203.192 364.441,203.987C362.174,206.381 359.907,208.592 357.64,210.481C363.193,212.258 369.412,213.813 376.52,214.923C379.852,215.59 383.184,215.812 386.96,216.034C396.733,216.256 405.173,212.48 411.615,204.928ZM357.418,201.152C353.197,200.041 349.421,198.931 346.09,197.82C344.154,197.224 342.218,196.529 340.416,195.8C339.783,195.542 339.071,195.56 338.453,195.85C337.834,196.14 337.365,196.676 337.16,197.328C336.803,198.455 336.373,199.581 335.872,200.708C338.538,202.262 341.647,203.817 344.757,205.15C345.872,205.646 346.987,206.141 348.102,206.598C349.742,207.257 351.613,206.933 352.937,205.762C354.494,204.372 356.058,202.813 357.418,201.152ZM432.494,172.943C434.493,168.723 436.492,164.724 438.269,160.504C414.058,177.829 396.066,183.827 381.629,185.381C381.045,185.381 380.401,185.443 379.759,185.501C378.705,185.566 377.747,186.135 377.185,187.029C375.256,190.1 373.306,193.127 371.189,195.821C373.855,196.043 376.742,196.043 379.852,196.043C390.291,196.043 402.73,193.6 418.056,186.714C424.498,183.604 429.162,179.162 432.494,172.943ZM368.524,186.492C360.527,186.492 353.864,185.826 348.311,184.937C346.118,184.499 344.02,184.06 342.083,183.621C341.383,183.46 340.647,183.615 340.071,184.046C339.496,184.476 339.138,185.138 339.094,185.855C339.01,187.104 338.885,188.353 338.76,189.602C341.425,190.49 344.091,191.379 347.2,192.267C350.746,193.2 354.919,194.133 359.72,194.803C361.443,195.041 363.156,194.301 364.164,192.883C365.618,190.806 367.071,188.591 368.524,186.492ZM447.82,134.738C448.931,131.407 449.819,127.853 450.708,124.299C424.447,149.052 405.07,160.039 389.545,165.142C388.617,165.44 387.87,166.134 387.504,167.037C386.088,170.513 384.5,173.838 382.739,177.163L383.184,177.163C397.177,174.72 414.28,168.056 437.158,150.509C442.489,146.289 446.043,141.402 447.82,134.738ZM268.348,230.916C270.92,228.146 273.492,225.377 275.749,222.607C276.264,221.971 276.996,221.55 277.805,221.426C279.422,221.182 280.778,220.79 282.564,220.254C280.565,223.142 276.344,230.249 268.348,230.916ZM137.964,68.547C158.399,112.304 198.158,151.619 247.025,158.949C255.687,160.282 263.239,160.06 270.791,159.616C272.568,159.394 274.345,160.282 275.456,162.059C276.566,163.614 276.566,165.391 275.678,167.168C273.457,171.166 271.902,176.052 271.458,181.605C270.125,193.156 273.679,203.595 279.676,207.371C281.009,208.26 282.342,208.704 283.896,208.926C284.785,208.926 286.34,211.814 285.895,212.702C285.455,213.436 285.015,214.266 284.575,215.13C284.068,216.114 283.19,216.856 282.135,217.19C280.93,217.417 279.533,217.589 278.566,217.589C279.232,216.922 281.009,213.591 281.675,212.48C271.68,210.037 265.016,196.487 266.571,181.161C267.015,176.941 268.126,172.943 269.459,169.389C269.903,168.5 269.681,167.612 269.237,166.723C268.57,166.057 267.682,165.613 266.793,165.835C261.462,166.501 255.465,166.723 248.357,166.279C202.157,164.28 131.523,118.746 137.964,68.547ZM243.249,237.135C241.694,237.135 240.139,237.135 238.806,236.913C246.519,232.873 257.723,225.19 261.625,222.397C262.362,221.73 263.361,221.434 264.342,221.591C266.567,221.944 268.79,222.253 271.013,222.253C268.126,224.919 265.238,227.584 262.351,230.249C256.798,235.136 250.356,237.357 243.249,237.135ZM266.793,217.144C268.5,215.608 270.208,214.203 271.713,212.828C272.467,212.124 273.581,211.968 274.499,212.439C275.441,212.922 276.448,213.303 277.455,213.591C276.752,214.434 275.96,215.278 275.192,216.121C274.299,217.126 273.016,217.698 271.672,217.691C270.054,217.651 268.476,217.45 266.793,217.144ZM210.153,225.363C215.484,225.141 220.37,224.252 224.813,223.142C233.413,221.094 240.692,218.48 246.998,215.822C247.976,215.406 249.095,215.49 250,216.047C252.197,217.388 254.422,218.452 256.798,219.366C251.689,222.697 246.358,225.585 240.805,228.028C230.588,232.915 219.482,231.804 210.153,225.363ZM254.355,211.591C255.021,211.369 255.465,211.147 256.131,210.925C259.097,209.355 261.789,207.785 264.314,206.107C265.39,205.385 266.843,205.628 267.625,206.661C268.314,207.559 269.108,208.354 269.903,209.148C267.878,210.667 265.853,212.314 263.633,213.894C262.246,214.866 260.442,215.011 258.918,214.272C257.413,213.504 255.93,212.594 254.355,211.591ZM188.385,204.928C186.386,202.485 184.387,200.041 182.61,197.376C198.381,203.595 211.041,204.928 221.481,204.262C225.453,204.072 229.104,203.561 232.569,203.002C233.677,202.824 234.799,203.224 235.545,204.063C237.659,206.429 239.931,208.612 242.36,210.481C236.807,212.258 230.588,213.813 223.48,214.923C220.148,215.59 216.594,215.812 213.04,216.034C203.267,216.256 194.605,212.48 188.385,204.928ZM242.36,201.152C246.58,200.041 250.356,198.931 253.688,197.82C255.817,197.212 257.738,196.499 259.593,195.754C260.225,195.503 260.933,195.526 261.547,195.818C262.161,196.11 262.626,196.644 262.83,197.293C263.188,198.432 263.622,199.57 264.128,200.708C261.24,202.262 258.353,203.817 255.021,205.15C254.026,205.648 252.961,206.145 251.865,206.604C250.247,207.274 248.39,206.982 247.056,205.848C245.443,204.436 243.902,202.848 242.36,201.152ZM167.506,172.943C165.285,168.723 163.286,164.724 161.509,160.504C185.72,177.829 203.711,183.827 218.149,185.381C218.858,185.381 219.566,185.444 220.241,185.503C221.296,185.568 222.254,186.137 222.817,187.032C224.745,190.101 226.695,193.128 228.811,195.821C225.923,196.043 223.036,196.043 220.148,196.043C209.709,196.043 197.27,193.6 181.944,186.714C175.502,183.604 170.838,179.162 167.506,172.943ZM231.254,186.492C239.25,186.492 245.914,185.826 251.467,184.937C253.701,184.49 255.834,184.044 257.868,183.597C258.572,183.442 259.308,183.605 259.88,184.042C260.453,184.479 260.803,185.147 260.838,185.866C260.882,187.111 260.991,188.357 261.24,189.602C258.575,190.49 255.687,191.379 252.8,192.267C249.038,193.208 244.958,194.148 240.154,194.819C238.485,195.049 236.821,194.363 235.8,193.023C234.225,190.905 232.739,188.637 231.254,186.492ZM151.958,134.738C151.069,131.407 149.959,127.853 149.292,124.299C175.344,149.058 194.717,160.044 210.446,165.146C211.379,165.441 212.131,166.137 212.498,167.044C213.915,170.518 215.502,173.84 217.261,177.163L216.816,177.163C202.823,174.72 185.72,168.056 162.842,150.509C157.511,146.289 153.957,141.402 151.958,134.738Z" style="fill:#61564b;"/>
        <path d="M314.327,107.862C334.317,110.972 352.309,120.523 365.858,134.072C369.856,138.07 373.632,142.512 376.742,147.177C374.965,147.843 373.41,148.51 371.633,148.954C368.746,145.178 365.636,141.402 362.082,137.848C348.977,124.743 331.874,115.858 312.772,113.193L312.772,112.526C313.438,111.194 314.105,109.639 314.327,107.862ZM387.404,232.693C382.517,245.354 375.187,256.682 365.858,266.011C350.976,281.115 330.763,290.888 308.329,292.887L309.884,287.556C330.097,285.113 348.311,276.006 362.082,262.235C368.524,255.793 374.077,248.463 378.075,240.245L378.297,240.023C379.185,238.468 379.852,236.913 380.518,235.136C382.961,234.692 385.183,233.803 387.404,232.693ZM291.671,292.887C269.237,290.888 249.024,281.115 233.92,266.011C224.591,256.682 217.261,245.354 212.596,232.693C214.817,233.803 217.039,234.692 219.26,235.136C220.148,236.913 220.815,238.468 221.703,240.023L221.703,240.245C225.923,248.463 231.476,255.793 237.696,262.235C251.467,276.006 269.681,285.113 290.116,287.556L291.671,292.887ZM223.258,147.177C226.368,142.512 229.921,138.07 233.92,134.072C247.691,120.523 265.683,110.972 285.673,107.862C285.895,109.639 286.562,111.194 287.228,112.526L287.228,112.971C268.126,115.858 250.801,124.743 237.696,137.848C234.364,141.402 231.254,145.178 228.367,148.954C226.59,148.51 224.813,147.843 223.258,147.177Z" style="fill:#61564b;fill-rule:nonzero;"/>
        <g id="CorelEMF4" serif:id="CorelEMF">
        </g>
        <g id="CorelEMF5" serif:id="CorelEMF">
        </g>
    </g>
    <defs>
        <radialGradient id="_Radial1" cx="0" cy="0" r="1" gradientUnits="userSpaceOnUse" gradientTransform="matrix(2.19595e-14,-366.128,358.626,2.24189e-14,300,200.041)"><stop offset="0" style="stop-color:#fff;stop-opacity:1"/><stop offset="1" style="stop-color:#eee;stop-opacity:1"/></radialGradient>
    </defs>
</svg>
